<?xml version="1.0" encoding="UTF-8"?>
<svg id="Layer_3" data-name="Layer 3" xmlns="http://www.w3.org/2000/svg" viewBox="0 0 457.75 457.75">
  <defs>
    <style>
      .cls-1 {
        fill: #107cad;
      }

      .cls-2 {
        fill: #fff;
      }

      .cls-3 {
        fill: #0d9dda;
      }
    </style>
  </defs>
  <g id="Layer_4" data-name="Layer 4">
    <g id="Abilityforce-2D">
      <path class="cls-2" d="M228.87,0c126.2,0,228.87,102.67,228.87,228.87s-102.67,228.87-228.87,228.87S0,355.08,0,228.87,102.67,0,228.87,0Z"/>
      <g>
        <path class="cls-3" d="M219.28,270.07l-2.65-1.18c-13.26-15.22,1.06-27.45,9.23-28.49,6.92-.86,21.44-2.55,26.26-3.13l2.51-1.56,18.86-28.77v-3.86s-24.49-38.22-24.49-38.22l-2.94-1.62h-72.49l-2.87,1.5-67.99,97.48-2.9,1.5h-58.76c-2.95,0-4.58-3.39-2.76-5.71l103.96-132.56c4.93-6.27,12.4-9.94,20.33-9.94h92.31c9.11,0,17.51,5.02,21.9,13.09l40.44,74.64-.17,3.65-40.68,61.6-2.93,1.57h-54.18Z"/>
        <path class="cls-1" d="M238.47,187.68l2.65,1.18c13.26,15.22-1.06,27.45-9.23,28.48-6.92.88-21.4,2.59-26.26,3.14l-2.51,1.56-18.85,28.77v3.86l24.48,38.22,2.96,1.62h72.47l2.87-1.5,67.99-97.47,2.9-1.51h58.76c2.95,0,4.58,3.42,2.76,5.73l-103.96,132.56c-4.93,6.25-12.4,9.92-20.33,9.92h-92.31c-9.11,0-17.51-5.02-21.9-13.07l-40.44-74.64.17-3.67,40.68-61.6,2.93-1.57h54.18Z"/>
      </g>
    </g>
  </g>
</svg>